<?xml version="1.0" encoding="UTF-8"?>
<svg xmlns="http://www.w3.org/2000/svg" width="920" height="384" viewBox="0 0 920 384" font-family="'Segoe UI',-apple-system,Roboto,Helvetica,Arial,sans-serif">
  <rect width="920" height="384" fill="#f4f6f9"/>
  <rect x="12" y="12" width="896" height="360" rx="16" fill="#ffffff" stroke="#e3e7ee"/>
  <text x="40" y="52" font-size="20" font-weight="700" fill="#171b24">More host chains + MPS fill the idle GPU</text>

  <g transform="translate(56,58)">
    <line x1="380" y1="22" x2="380" y2="186" stroke="#d7dce4" stroke-dasharray="4 5"/>
    <text x="30" y="30" font-size="14" font-weight="700" fill="#171b24">1 replica</text>
    <rect x="30" y="92" width="120" height="30" rx="6" fill="#d5883a"/>
    <text x="90" y="112" font-size="12.5" fill="#ffffff" text-anchor="middle">host chain</text>
    <path d="M150 107 L178 107" stroke="#5f6a79" stroke-width="1.5" marker-end="url(#a2)"/>
    <rect x="184" y="44"  width="28" height="28" rx="4" fill="#12a394"/>
    <rect x="252" y="44"  width="28" height="28" rx="4" fill="#12a394"/>
    <rect x="218" y="78"  width="28" height="28" rx="4" fill="#12a394"/>
    <rect x="286" y="112" width="28" height="28" rx="4" fill="#12a394"/>
    <rect x="184" y="146" width="28" height="28" rx="4" fill="#12a394"/>
    <rect x="218" y="44"  width="28" height="28" rx="4" fill="#ccd3dd"/>
    <rect x="286" y="44"  width="28" height="28" rx="4" fill="#ccd3dd"/>
    <rect x="184" y="78"  width="28" height="28" rx="4" fill="#ccd3dd"/>
    <rect x="252" y="78"  width="28" height="28" rx="4" fill="#ccd3dd"/>
    <rect x="286" y="78"  width="28" height="28" rx="4" fill="#ccd3dd"/>
    <rect x="184" y="112" width="28" height="28" rx="4" fill="#ccd3dd"/>
    <rect x="218" y="112" width="28" height="28" rx="4" fill="#ccd3dd"/>
    <rect x="252" y="112" width="28" height="28" rx="4" fill="#ccd3dd"/>
    <rect x="218" y="146" width="28" height="28" rx="4" fill="#ccd3dd"/>
    <rect x="252" y="146" width="28" height="28" rx="4" fill="#ccd3dd"/>
    <rect x="286" y="146" width="28" height="28" rx="4" fill="#ccd3dd"/>
    <text x="184" y="196" font-size="12.5" fill="#5f6a79"><tspan fill="#171b24">SM Active ≈29%</tspan>, mostly idle</text>

    <text x="410" y="30" font-size="14" font-weight="700" fill="#171b24">3 replicas + MPS</text>
    <rect x="410" y="65" width="94" height="24" rx="5" fill="#d5883a"/>
    <rect x="410" y="97" width="94" height="24" rx="5" fill="#d5883a"/>
    <rect x="410" y="129" width="94" height="24" rx="5" fill="#d5883a"/>
    <text x="457" y="81"  font-size="11" fill="#ffffff" text-anchor="middle">core block 1</text>
    <text x="457" y="113" font-size="11" fill="#ffffff" text-anchor="middle">core block 2</text>
    <text x="457" y="145" font-size="11" fill="#ffffff" text-anchor="middle">core block 3</text>
    <path d="M504 77  L536 96"  stroke="#5f6a79" stroke-width="1.3" marker-end="url(#a2)"/>
    <path d="M504 109 L536 109" stroke="#5f6a79" stroke-width="1.3" marker-end="url(#a2)"/>
    <path d="M504 141 L536 122" stroke="#5f6a79" stroke-width="1.3" marker-end="url(#a2)"/>
    <rect x="538" y="69" width="26" height="80" rx="5" fill="#12a394"/>
    <text x="551" y="109" font-size="12" fill="#ffffff" text-anchor="middle" transform="rotate(-90 551 109)">MPS</text>
    <path d="M564 109 L590 109" stroke="#5f6a79" stroke-width="1.5" marker-end="url(#a2)"/>
    <rect x="596" y="44"  width="28" height="28" rx="4" fill="#12a394"/>
    <rect x="630" y="44"  width="28" height="28" rx="4" fill="#3cae7f"/>
    <rect x="664" y="44"  width="28" height="28" rx="4" fill="#2f8fb0"/>
    <rect x="698" y="44"  width="28" height="28" rx="4" fill="#ccd3dd"/>
    <rect x="596" y="78"  width="28" height="28" rx="4" fill="#3cae7f"/>
    <rect x="630" y="78"  width="28" height="28" rx="4" fill="#2f8fb0"/>
    <rect x="664" y="78"  width="28" height="28" rx="4" fill="#ccd3dd"/>
    <rect x="698" y="78"  width="28" height="28" rx="4" fill="#12a394"/>
    <rect x="596" y="112" width="28" height="28" rx="4" fill="#2f8fb0"/>
    <rect x="630" y="112" width="28" height="28" rx="4" fill="#12a394"/>
    <rect x="664" y="112" width="28" height="28" rx="4" fill="#3cae7f"/>
    <rect x="698" y="112" width="28" height="28" rx="4" fill="#ccd3dd"/>
    <rect x="596" y="146" width="28" height="28" rx="4" fill="#ccd3dd"/>
    <rect x="630" y="146" width="28" height="28" rx="4" fill="#ccd3dd"/>
    <rect x="664" y="146" width="28" height="28" rx="4" fill="#12a394"/>
    <rect x="698" y="146" width="28" height="28" rx="4" fill="#ccd3dd"/>
    <text x="596" y="196" font-size="12.5" fill="#5f6a79">more of the GPU is used</text>
  </g>

  <g transform="translate(40,296)" font-size="12.5" fill="#5f6a79">
    <rect x="0" y="0" width="13" height="13" rx="3" fill="#12a394"/>
    <text x="19" y="11">kernels from the replicas</text>
    <rect x="196" y="0" width="13" height="13" rx="3" fill="#ccd3dd"/>
    <text x="215" y="11">idle SM</text>
    <rect x="290" y="0" width="13" height="13" rx="3" fill="#d5883a"/>
    <text x="309" y="11">host chain (own cores)</text>
  </g>
  <text x="40" y="336" font-size="13" fill="#5f6a79">Each replica is a full serving process with its own cores, so it adds an independent host chain.</text>
  <text x="40" y="358" font-size="13" fill="#5f6a79">Without MPS the processes only time-slice; MPS lets their kernels co-reside on the SMs and use the idle compute.</text>
  <defs><marker id="a2" markerWidth="7" markerHeight="7" refX="5" refY="3.2" orient="auto"><path d="M0 0 L6 3.2 L0 6 z" fill="#5f6a79"/></marker></defs>
</svg>
